<?xml version="1.0" encoding="UTF-8" standalone="no" ?>
<!DOCTYPE svg PUBLIC "-//W3C//DTD SVG 1.1//EN" "http://www.w3.org/Graphics/SVG/1.1/DTD/svg11.dtd">
<svg xmlns="http://www.w3.org/2000/svg" xmlns:xlink="http://www.w3.org/1999/xlink" version="1.1" width="1080" height="1080" viewBox="0 0 1080 1080" xml:space="preserve">
<desc>Created with Fabric.js 5.2.4</desc>
<defs>
</defs>
<g transform="matrix(1 0 0 1 540 540)" id="10504b55-edec-457a-8c8c-102b84e00949"  >
<rect style="stroke: none; stroke-width: 1; stroke-dasharray: none; stroke-linecap: butt; stroke-dashoffset: 0; stroke-linejoin: miter; stroke-miterlimit: 4; fill: rgb(255,255,255); fill-rule: nonzero; opacity: 1; visibility: hidden;" vector-effect="non-scaling-stroke"  x="-540" y="-540" rx="0" ry="0" width="1080" height="1080" />
</g>
<g transform="matrix(1 0 0 1 540 540)" id="5e90ea05-25d8-43c5-8a0a-8e58431924ef"  >
</g>
<g transform="matrix(1 0 0 1 540 540)"  >
<g style="" vector-effect="non-scaling-stroke"   >
		<g transform="matrix(1 0 0 1 0 0)"  >
<path style="stroke: none; stroke-width: 1; stroke-dasharray: none; stroke-linecap: butt; stroke-dashoffset: 0; stroke-linejoin: miter; stroke-miterlimit: 4; fill: rgb(0,0,0); fill-rule: evenodd; opacity: 1;" vector-effect="non-scaling-stroke"  transform=" translate(-245.38, -44.89)" d="M 189.26 0.65 L 189.26 5.8500000000000005 L 216.26 5.8500000000000005 C 221.66 5.920000000000001 223.48999999999998 10.850000000000001 223.48999999999998 13.850000000000001 L 223.48999999999998 85 C 229.36999999999998 87.48 235.76999999999998 88.94 242.45999999999998 89.13 L 242.45999999999998 5.43 C 242.45999999999998 1.9099999999999997 240.71999999999997 0.6499999999999995 236.83999999999997 0.6499999999999995 z M 253.91 0.65 C 250.04 0.65 248.31 1.9100000000000001 248.31 5.45 L 248.31 89.13000000000001 C 254.99 88.93 261.39 87.48 267.28 85.00000000000001 L 267.28 13.84 C 267.28 10.86 269.09999999999997 5.92 274.5 5.84 L 301.5 5.84 L 301.5 0.64 z" stroke-linecap="round" />
</g>
		<g transform="matrix(1 0 0 1 0 2.33)"  >
<path style="stroke: none; stroke-width: 1; stroke-dasharray: none; stroke-linecap: butt; stroke-dashoffset: 0; stroke-linejoin: miter; stroke-miterlimit: 4; fill: rgb(191,0,0); fill-rule: evenodd; opacity: 1;" vector-effect="non-scaling-stroke"  transform=" translate(-245.38, -47.21)" d="M 189.26 12.03 L 189.26 34.95 C 189.26 53.25 194.29 66.48 208.76 77.33000000000001 C 211.29999999999998 79.23000000000002 214.45999999999998 81.03000000000002 217.34 82.39000000000001 L 217.34 17.36 C 217.34 13.91 214.61 12.02 210.74 12.02 z M 280.02 12.03 C 276.15 12.03 273.41999999999996 13.93 273.41999999999996 17.369999999999997 L 273.41999999999996 82.4 C 276.28 81.02000000000001 279.44999999999993 79.24000000000001 282.02 77.33000000000001 C 296.46999999999997 66.48000000000002 301.5 53.23000000000001 301.5 34.95000000000001 L 301.5 12.03 z" stroke-linecap="round" />
</g>
</g>
</g>
</svg>